<?xml version="1.0" encoding="UTF-8" standalone="no"?>
<svg
   xmlns:dc="http://purl.org/dc/elements/1.1/"
   xmlns:cc="http://creativecommons.org/ns#"
   xmlns:rdf="http://www.w3.org/1999/02/22-rdf-syntax-ns#"
   xmlns:svg="http://www.w3.org/2000/svg"
   xmlns="http://www.w3.org/2000/svg"
   height="254.74332"
   width="1363.6313"
   xml:space="preserve"
   viewBox="0 0 1363.6313 254.74332"
   y="0px"
   x="0px"
   id="Layer_1"
   version="1.1"><metadata
   id="metadata17"><rdf:RDF><cc:Work
       rdf:about=""><dc:format>image/svg+xml</dc:format><dc:type
         rdf:resource="http://purl.org/dc/dcmitype/StillImage" /><dc:title></dc:title></cc:Work></rdf:RDF></metadata><defs
   id="defs15" />
<style
   id="style2"
   type="text/css">
	.st0{fill:#FB713F;}
	.st1{fill:#3E444D;}
	.st2{fill:#FFFFFF;}
</style>
<g
   transform="translate(-121.6906,-70.3)"
   id="g10">
	<path
   id="path4"
   d="m 346.1,70.3 h -116 c -32.5,0 -53.2,23.4 -59.6,50.4 -5,19.7 -48.5,192.1 -48.5,192.1 0,0 -5,23.4 25.2,5.5 l 56.4,-34.4 h 92.1 c 33,0 53.2,-23.4 59.6,-50.9 0,-0.5 15.6,-61.4 28.4,-112.3 7.8,-32.5 -6.4,-50.4 -37.6,-50.4 z"
   class="st0" />
	<path
   id="path6"
   d="m 561.5,146.9 h -0.9 -8.2 l -6.9,26.1 -20.6,77 H 557 c 4.1,-14.7 19.7,-74.2 21.1,-78.4 2.7,-15.1 -2.8,-23.8 -16.6,-24.7 z m 386.9,0 h -0.9 -8.2 l -6.9,26.1 -20.6,77 h 32.1 c 4.1,-14.7 20.2,-74.2 21.1,-78.4 3.1,-15.1 -2.9,-23.8 -16.6,-24.7 z m -289.7,0 h -59.1 l -38,141.2 h 33.9 l 10.1,-38 H 634 c 15.6,0 25.7,-11.5 28.9,-24.3 3.2,-12.8 10.1,-38 14.2,-54.1 4.1,-16.1 -3.3,-24.8 -18.4,-24.8 z m -14.2,28.9 c -0.5,2.3 -11,41.7 -11.9,44 -0.5,1.8 -2.3,3.2 -4.1,3.2 v 0 h -15.6 l 14.2,-50.4 h 14.7 c 3.2,-0.5 3.2,0.9 2.7,3.2 z m 148,-28.9 -20.2,72.9 c -0.5,1.8 -1.8,2.7 -3.7,3.2 H 760 c -1.4,0 -2.3,-0.9 -2.3,-2.3 0,-0.5 0,-0.5 0,-0.9 l 20.2,-72.9 h -31.6 l -20.2,72.9 c -0.5,1.8 -1.8,2.7 -3.7,3.2 h -8.7 c -1.4,0 -2.3,-0.9 -2.3,-2.3 0,-0.5 0,-0.5 0,-0.9 l 20.2,-72.9 H 700 c -7.3,26.6 -21.5,77.9 -22,80.2 -2.3,9.6 6,22.9 17,22.9 h 77 c 11,0 26.1,-8.7 29.3,-20.6 1.4,-5.5 15.6,-56.4 22.5,-82.5 z m 253,0 h -59.1 l -38.5,141.2 h 33.9 l 10.1,-38 h 28 c 15.6,0 25.7,-11.5 28.9,-24.3 3.2,-12.8 10.1,-38 14.2,-54.1 4.1,-16.1 -2.3,-24.8 -17.5,-24.8 z m -14.2,28.4 c -0.5,2.3 -11,41.7 -11.9,44 -0.5,1.8 -2.3,3.2 -4.1,3.2 h -0.5 -15.6 l 14.2,-50.4 h 14.7 c 3.7,0 3.7,1.4 3.2,3.2 z M 526.7,179 c 4.1,-3.2 6.4,-8.2 6.9,-13.3 0.9,-9.2 -6,-17.4 -15.6,-18.3 -0.5,0 -1.4,0 -1.8,0 H 452 L 445.1,174 H 491 l -58.7,45.8 c -3.2,3.2 -5.5,7.3 -5.5,11.9 -0.9,9.6 6,17.9 15.6,18.8 0.5,0 1.4,0 1.8,0 h 64.2 l 7.3,-27.5 h -44.9 z m 371.7,-32.1 h -27.5 l 11.9,-44.5 h -31.2 l -17,62.3 v 0 L 811.8,250 h 33.9 l 21.1,-77.9 h 14.7 c 3.2,0 3.2,1.4 2.7,3.7 0,0.9 -10.1,38.5 -19.7,74.2 h 31.6 c 9.2,-34.4 18.8,-70.6 20.6,-78.4 3.7,-16 -3.2,-24.7 -18.3,-24.7 z m 184.7,2.3 c 0.5,0 0.5,-0.5 0.5,-0.9 0,-0.5 0,-0.5 0,-0.9 -0.5,-0.5 -0.5,-0.5 -0.9,-0.5 h -9.6 c -0.5,0 -0.9,0 -1.4,0.5 -0.5,0 -0.5,0.5 -0.5,0.9 0,0.5 0,0.5 0,0.9 0.5,0.5 0.5,0.5 0.9,0.5 h 3.2 l -3.7,11 c 0,0.5 0,0.9 0,1.4 0,0.5 0.5,0.5 0.9,0.5 0.5,0 0.9,0 1.4,-0.5 0.5,-0.5 0.9,-0.9 0.9,-1.4 l 3.7,-11 h 3.2 c 0.5,-0.1 0.9,-0.1 1.4,-0.5 z m 16.5,-1.9 c -0.5,-0.5 -0.9,-0.5 -1.4,-0.5 h -0.9 c -0.5,0 -0.9,0 -1.4,0 -0.5,0 -0.5,0.5 -0.9,0.5 -0.5,0.5 -0.5,0.9 -0.9,1.4 l -5,8.2 0.5,-8.2 c 0,-0.5 0,-0.9 0,-1.4 0,-0.5 0,-0.5 -0.5,-0.5 -0.5,0 -0.9,0 -1.4,0 h -0.9 c -0.5,0 -0.9,0 -1.4,0.5 -0.5,0.5 -0.9,0.9 -0.9,1.4 l -4.1,11.9 c 0,0.5 0,0.9 0,1.4 0,0.5 0.5,0.5 0.9,0.5 0.5,0 0.9,0 1.4,-0.5 0.5,-0.5 0.5,-0.9 0.9,-1.4 l 3.2,-10.5 -0.9,9.6 c 0,0.5 0,0.5 0,0.9 0,0.4 0,0.5 0,0.9 0,0.5 0,0.5 0.5,0.5 0.5,0 0.5,0.5 0.9,0 0.5,0 0.9,0 1.4,-0.5 0.5,0 0.5,-0.5 0.9,-0.9 0,-0.5 0.5,-0.9 0.9,-1.4 l 5.5,-9.6 -3.2,10.5 c 0,0.5 0,0.9 0,1.4 0,0.5 0.5,0.5 0.9,0.5 0.5,0 0.9,0 1.4,-0.5 0.5,-0.5 0.5,-0.9 0.9,-1.4 l 4.1,-11.9 c 0,0.5 0,-0.4 -0.5,-0.9 z"
   class="st1" />
	<path
   id="path8"
   d="m 339.7,129 c -0.5,7.8 -3.7,14.7 -9.6,19.2 l -80.7,63.2 h 65.1 L 304,250.9 h -93 c -13.7,0 -24.7,-10.5 -25.2,-24.3 0,-0.9 0,-1.8 0,-2.7 0,-6.9 2.7,-12.8 7.8,-17.4 l 84.8,-66 h -66.5 l 10.1,-38 h 92.6 c 13.3,-0.5 24.7,10.1 25.2,23.8 -0.1,0.9 -0.1,1.8 -0.1,2.7 z"
   class="st2" />
</g>
<g
   transform="matrix(1,0,-0.27717165,1,23.101281,0)"
   id="g863"><path
     id="path846"
     style="font-style:normal;font-variant:normal;font-weight:normal;font-stretch:normal;font-size:192px;line-height:1.25;font-family:'Arial Rounded MT Bold';-inkscape-font-specification:'Arial Rounded MT Bold, ';fill:#fb713f;fill-opacity:1;stroke:none"
     d="m 1056.9127,56.01609 v 100.03125 h 56.4375 q 6.75,0 10.3125,3.28125 3.6562,3.28125 3.6562,8.25 0,5.0625 -3.5625,8.25 -3.5625,3.09375 -10.4062,3.09375 h -67.2188 q -9.0937,0 -13.125,-4.03125 -3.9375,-4.03125 -3.9375,-13.03125 V 56.01609 q 0,-8.4375 3.75,-12.65625 3.8438,-4.21875 10.0313,-4.21875 6.2812,0 10.125,4.21875 3.9375,4.125 3.9375,12.65625 z" /><path
     id="path848"
     style="font-style:normal;font-variant:normal;font-weight:normal;font-stretch:normal;font-size:192px;line-height:1.25;font-family:'Arial Rounded MT Bold';-inkscape-font-specification:'Arial Rounded MT Bold, ';fill:#fb713f;fill-opacity:1;stroke:none"
     d="m 1159.3189,91.73484 v 73.96875 q 0,7.6875 -3.6562,11.625 -3.6563,3.9375 -9.2813,3.9375 -5.625,0 -9.1875,-4.03125 -3.4687,-4.03125 -3.4687,-11.53125 V 92.48484 q 0,-7.59375 3.4687,-11.4375 3.5625,-3.84375 9.1875,-3.84375 5.625,0 9.2813,3.84375 3.6562,3.84375 3.6562,10.6875 z m -12.6562,-26.4375 q -5.3438,0 -9.1875,-3.28125 -3.75,-3.28125 -3.75,-9.28125 0,-5.4375 3.8437,-8.90625 3.9375,-3.5625 9.0938,-3.5625 4.9687,0 8.8125,3.1875 3.8437,3.1875 3.8437,9.28125 0,5.90625 -3.75,9.28125 -3.75,3.28125 -8.9062,3.28125 z" /><path
     id="path850"
     style="font-style:normal;font-variant:normal;font-weight:normal;font-stretch:normal;font-size:192px;line-height:1.25;font-family:'Arial Rounded MT Bold';-inkscape-font-specification:'Arial Rounded MT Bold, ';fill:#fb713f;fill-opacity:1;stroke:none"
     d="m 1197.1002,91.35984 v 3.09375 q 6.75,-8.90625 14.7187,-13.03125 8.0625,-4.21875 18.4688,-4.21875 10.125,0 18.0937,4.40625 7.9688,4.40625 11.9063,12.46875 2.5312,4.6875 3.2812,10.125 0.75,5.4375 0.75,13.875 v 47.625 q 0,7.6875 -3.5625,11.625 -3.4687,3.9375 -9.0937,3.9375 -5.7188,0 -9.2813,-4.03125 -3.5625,-4.03125 -3.5625,-11.53125 v -42.65625 q 0,-12.65625 -3.5625,-19.3125 -3.4687,-6.75 -13.9687,-6.75 -6.8438,0 -12.4688,4.125 -5.625,4.03125 -8.25,11.15625 -1.875,5.71875 -1.875,21.375 v 32.0625 q 0,7.78125 -3.6562,11.71875 -3.5625,3.84375 -9.2813,3.84375 -5.5312,0 -9.0937,-4.03125 -3.5625,-4.03125 -3.5625,-11.53125 V 91.73484 q 0,-7.3125 3.1875,-10.875 3.1875,-3.65625 8.7187,-3.65625 3.375,0 6.0938,1.59375 2.7187,1.59375 4.3125,4.78125 1.6875,3.1875 1.6875,7.78125 z" /><path
     id="path852"
     style="font-style:normal;font-variant:normal;font-weight:normal;font-stretch:normal;font-size:192px;line-height:1.25;font-family:'Arial Rounded MT Bold';-inkscape-font-specification:'Arial Rounded MT Bold, ';fill:#fb713f;fill-opacity:1;stroke:none"
     d="m 1337.4752,169.54734 -22.5938,-37.125 -13.875,13.125 v 20.34375 q 0,7.40625 -3.9375,11.4375 -3.8437,3.9375 -8.9062,3.9375 -5.9063,0 -9.2813,-3.9375 -3.375,-3.9375 -3.375,-11.625 v -109.125 q 0,-8.53125 3.2813,-12.9375 3.2812,-4.5 9.375,-4.5 5.9062,0 9.375,4.03125 3.4687,4.03125 3.4687,11.90625 v 62.0625 l 28.7813,-30.1875 q 5.3437,-5.625 8.1562,-7.6875 2.8125,-2.0625 6.8438,-2.0625 4.7812,0 7.9687,3.09375 3.1875,3 3.1875,7.59375 0,5.625 -10.4062,15 l -13.5938,12.46875 26.25,41.25 q 2.9063,4.59375 4.125,7.03125 1.3125,2.34375 1.3125,4.5 0,6.09375 -3.375,9.65625 -3.2812,3.46875 -8.7187,3.46875 -4.6875,0 -7.2188,-2.53125 -2.5312,-2.53125 -6.8437,-9.1875 z" /></g></svg>
