<?xml version="1.0" encoding="UTF-8" standalone="no"?>
<svg
   xmlns:dc="http://purl.org/dc/elements/1.1/"
   xmlns:cc="http://creativecommons.org/ns#"
   xmlns:rdf="http://www.w3.org/1999/02/22-rdf-syntax-ns#"
   xmlns:svg="http://www.w3.org/2000/svg"
   xmlns="http://www.w3.org/2000/svg"
   version="1.1"
   id="Layer_1"
   x="0px"
   y="0px"
   viewBox="0 0 3033.4698 1118.8836"
   xml:space="preserve"
   width="3033.47"
   height="1118.8835"><metadata
   id="metadata17"><rdf:RDF><cc:Work
       rdf:about=""><dc:format>image/svg+xml</dc:format><dc:type
         rdf:resource="http://purl.org/dc/dcmitype/StillImage" /><dc:title></dc:title></cc:Work></rdf:RDF></metadata><defs
   id="defs15" />
<style
   type="text/css"
   id="style2">
	.st0{fill:#FB713F;}
	.st1{fill:#3E444D;}
	.st2{fill:#FFFFFF;}
</style>
<rect
   y="0"
   x="0"
   height="1118.8835"
   width="3033.47"
   id="rect866"
   style="fill:#000000;fill-opacity:0.0441767;stroke-width:0.11552;stroke-linecap:round" /><g
   id="g10"
   transform="translate(519.85489,247.96022)">
	<path
   class="st0"
   d="m 346.1,70.3 h -116 c -32.5,0 -53.2,23.4 -59.6,50.4 -5,19.7 -48.5,192.1 -48.5,192.1 0,0 -5,23.4 25.2,5.5 l 56.4,-34.4 h 92.1 c 33,0 53.2,-23.4 59.6,-50.9 0,-0.5 15.6,-61.4 28.4,-112.3 7.8,-32.5 -6.4,-50.4 -37.6,-50.4 z"
   id="path4" />
	<path
   class="st1"
   d="m 561.5,146.9 h -0.9 -8.2 l -6.9,26.1 -20.6,77 H 557 c 4.1,-14.7 19.7,-74.2 21.1,-78.4 2.7,-15.1 -2.8,-23.8 -16.6,-24.7 z m 386.9,0 h -0.9 -8.2 l -6.9,26.1 -20.6,77 h 32.1 c 4.1,-14.7 20.2,-74.2 21.1,-78.4 3.1,-15.1 -2.9,-23.8 -16.6,-24.7 z m -289.7,0 h -59.1 l -38,141.2 h 33.9 l 10.1,-38 H 634 c 15.6,0 25.7,-11.5 28.9,-24.3 3.2,-12.8 10.1,-38 14.2,-54.1 4.1,-16.1 -3.3,-24.8 -18.4,-24.8 z m -14.2,28.9 c -0.5,2.3 -11,41.7 -11.9,44 -0.5,1.8 -2.3,3.2 -4.1,3.2 v 0 h -15.6 l 14.2,-50.4 h 14.7 c 3.2,-0.5 3.2,0.9 2.7,3.2 z m 148,-28.9 -20.2,72.9 c -0.5,1.8 -1.8,2.7 -3.7,3.2 H 760 c -1.4,0 -2.3,-0.9 -2.3,-2.3 0,-0.5 0,-0.5 0,-0.9 l 20.2,-72.9 h -31.6 l -20.2,72.9 c -0.5,1.8 -1.8,2.7 -3.7,3.2 h -8.7 c -1.4,0 -2.3,-0.9 -2.3,-2.3 0,-0.5 0,-0.5 0,-0.9 l 20.2,-72.9 H 700 c -7.3,26.6 -21.5,77.9 -22,80.2 -2.3,9.6 6,22.9 17,22.9 h 77 c 11,0 26.1,-8.7 29.3,-20.6 1.4,-5.5 15.6,-56.4 22.5,-82.5 z m 253,0 h -59.1 l -38.5,141.2 h 33.9 l 10.1,-38 h 28 c 15.6,0 25.7,-11.5 28.9,-24.3 3.2,-12.8 10.1,-38 14.2,-54.1 4.1,-16.1 -2.3,-24.8 -17.5,-24.8 z m -14.2,28.4 c -0.5,2.3 -11,41.7 -11.9,44 -0.5,1.8 -2.3,3.2 -4.1,3.2 h -0.5 -15.6 l 14.2,-50.4 h 14.7 c 3.7,0 3.7,1.4 3.2,3.2 z M 526.7,179 c 4.1,-3.2 6.4,-8.2 6.9,-13.3 0.9,-9.2 -6,-17.4 -15.6,-18.3 -0.5,0 -1.4,0 -1.8,0 H 452 L 445.1,174 H 491 l -58.7,45.8 c -3.2,3.2 -5.5,7.3 -5.5,11.9 -0.9,9.6 6,17.9 15.6,18.8 0.5,0 1.4,0 1.8,0 h 64.2 l 7.3,-27.5 h -44.9 z m 371.7,-32.1 h -27.5 l 11.9,-44.5 h -31.2 l -17,62.3 v 0 L 811.8,250 h 33.9 l 21.1,-77.9 h 14.7 c 3.2,0 3.2,1.4 2.7,3.7 0,0.9 -10.1,38.5 -19.7,74.2 h 31.6 c 9.2,-34.4 18.8,-70.6 20.6,-78.4 3.7,-16 -3.2,-24.7 -18.3,-24.7 z m 184.7,2.3 c 0.5,0 0.5,-0.5 0.5,-0.9 0,-0.5 0,-0.5 0,-0.9 -0.5,-0.5 -0.5,-0.5 -0.9,-0.5 h -9.6 c -0.5,0 -0.9,0 -1.4,0.5 -0.5,0 -0.5,0.5 -0.5,0.9 0,0.5 0,0.5 0,0.9 0.5,0.5 0.5,0.5 0.9,0.5 h 3.2 l -3.7,11 c 0,0.5 0,0.9 0,1.4 0,0.5 0.5,0.5 0.9,0.5 0.5,0 0.9,0 1.4,-0.5 0.5,-0.5 0.9,-0.9 0.9,-1.4 l 3.7,-11 h 3.2 c 0.5,-0.1 0.9,-0.1 1.4,-0.5 z m 16.5,-1.9 c -0.5,-0.5 -0.9,-0.5 -1.4,-0.5 h -0.9 c -0.5,0 -0.9,0 -1.4,0 -0.5,0 -0.5,0.5 -0.9,0.5 -0.5,0.5 -0.5,0.9 -0.9,1.4 l -5,8.2 0.5,-8.2 c 0,-0.5 0,-0.9 0,-1.4 0,-0.5 0,-0.5 -0.5,-0.5 -0.5,0 -0.9,0 -1.4,0 h -0.9 c -0.5,0 -0.9,0 -1.4,0.5 -0.5,0.5 -0.9,0.9 -0.9,1.4 l -4.1,11.9 c 0,0.5 0,0.9 0,1.4 0,0.5 0.5,0.5 0.9,0.5 0.5,0 0.9,0 1.4,-0.5 0.5,-0.5 0.5,-0.9 0.9,-1.4 l 3.2,-10.5 -0.9,9.6 c 0,0.5 0,0.5 0,0.9 0,0.4 0,0.5 0,0.9 0,0.5 0,0.5 0.5,0.5 0.5,0 0.5,0.5 0.9,0 0.5,0 0.9,0 1.4,-0.5 0.5,0 0.5,-0.5 0.9,-0.9 0,-0.5 0.5,-0.9 0.9,-1.4 l 5.5,-9.6 -3.2,10.5 c 0,0.5 0,0.9 0,1.4 0,0.5 0.5,0.5 0.9,0.5 0.5,0 0.9,0 1.4,-0.5 0.5,-0.5 0.5,-0.9 0.9,-1.4 l 4.1,-11.9 c 0,0.5 0,-0.4 -0.5,-0.9 z"
   id="path6" />
	<path
   class="st2"
   d="m 339.7,129 c -0.5,7.8 -3.7,14.7 -9.6,19.2 l -80.7,63.2 h 65.1 L 304,250.9 h -93 c -13.7,0 -24.7,-10.5 -25.2,-24.3 0,-0.9 0,-1.8 0,-2.7 0,-6.9 2.7,-12.8 7.8,-17.4 l 84.8,-66 h -66.5 l 10.1,-38 h 92.6 c 13.3,-0.5 24.7,10.1 25.2,23.8 -0.1,0.9 -0.1,1.8 -0.1,2.7 z"
   id="path8" />
</g>
<path
   d="m 1341.1538,579.63767 h -51.4687 v 169.17952 q 0,14.61457 -6.513,21.763 -6.513,6.98958 -16.8385,6.98958 -10.4844,0 -17.1563,-7.14843 -6.513,-7.14843 -6.513,-21.60415 V 579.63767 h -51.4687 q -12.0729,0 -17.9505,-5.24218 -5.8776,-5.40104 -5.8776,-14.13801 0,-9.05468 6.0365,-14.29686 6.1953,-5.24218 17.7916,-5.24218 h 149.9582 q 12.2318,0 18.1094,5.40104 6.0364,5.40103 6.0364,14.138 0,8.73697 -6.0364,14.13801 -6.0365,5.24218 -18.1094,5.24218 z"
   style="font-style:normal;font-variant:normal;font-weight:normal;font-stretch:normal;font-size:325.333px;line-height:1.25;font-family:'Arial Rounded MT Bold';-inkscape-font-specification:'Arial Rounded MT Bold, ';fill:#fb713f;fill-opacity:1;stroke:none"
   id="path844" /><path
   d="M 1423.5561,625.86419 V 751.2 q 0,13.02603 -6.1954,19.6979 -6.1953,6.67187 -15.7265,6.67187 -9.5312,0 -15.5677,-6.83073 -5.8776,-6.83072 -5.8776,-19.53904 V 627.13502 q 0,-12.86717 5.8776,-19.38019 6.0365,-6.51301 15.5677,-6.51301 9.5312,0 15.7265,6.51301 6.1954,6.51302 6.1954,18.10936 z m -21.4453,-44.79683 q -9.0547,0 -15.5677,-5.55989 -6.3542,-5.55989 -6.3542,-15.72655 0,-9.21353 6.513,-15.09113 6.6719,-6.03645 15.4089,-6.03645 8.4192,0 14.9322,5.40103 6.5131,5.40104 6.5131,15.72655 0,10.0078 -6.3542,15.72655 -6.3542,5.55989 -15.0911,5.55989 z"
   style="font-style:normal;font-variant:normal;font-weight:normal;font-stretch:normal;font-size:325.333px;line-height:1.25;font-family:'Arial Rounded MT Bold';-inkscape-font-specification:'Arial Rounded MT Bold, ';fill:#fb713f;fill-opacity:1;stroke:none"
   id="path846" /><path
   d="m 1482.1458,625.22877 v 5.24218 q 11.4375,-15.09113 24.9401,-22.0807 13.6614,-7.14843 31.2942,-7.14843 17.1562,0 30.6588,7.46614 13.5026,7.46613 20.1745,21.12758 4.2891,7.9427 5.5599,17.15623 1.2708,9.21353 1.2708,23.51039 V 751.2 q 0,13.02603 -6.0364,19.6979 -5.8776,6.67187 -15.4089,6.67187 -9.6901,0 -15.7265,-6.83073 -6.0365,-6.83072 -6.0365,-19.53904 v -72.27857 q 0,-21.44529 -6.0364,-32.72393 -5.8776,-11.43749 -23.6693,-11.43749 -11.5963,0 -21.1276,6.98958 -9.5312,6.83072 -13.9791,18.90363 -3.1771,9.69009 -3.1771,36.21871 V 751.2 q 0,13.18488 -6.1953,19.85675 -6.0364,6.51302 -15.7265,6.51302 -9.3724,0 -15.4089,-6.83073 -6.0364,-6.83072 -6.0364,-19.53904 V 625.86419 q 0,-12.39061 5.401,-18.42707 5.401,-6.1953 14.7734,-6.1953 5.7188,0 10.3255,2.70052 4.6068,2.70051 7.3073,8.10155 2.8594,5.40104 2.8594,13.18488 z"
   style="font-style:normal;font-variant:normal;font-weight:normal;font-stretch:normal;font-size:325.333px;line-height:1.25;font-family:'Arial Rounded MT Bold';-inkscape-font-specification:'Arial Rounded MT Bold, ';fill:#fb713f;fill-opacity:1;stroke:none"
   id="path848" /><path
   d="m 1653.1247,782.9708 3.9714,-9.69009 -53.375,-134.39049 q -4.9244,-11.59635 -4.9244,-16.83853 0,-5.55989 2.8593,-10.32551 2.8594,-4.76562 7.7839,-7.62499 5.0833,-2.85937 10.4844,-2.85937 9.3723,0 14.138,6.03645 4.7656,5.8776 8.4192,16.99738 l 36.6953,106.74989 34.789,-99.28375 q 4.1302,-12.07291 7.4662,-18.90363 3.3359,-6.83072 6.9895,-9.21353 3.8125,-2.38281 10.6433,-2.38281 4.9244,0 9.3723,2.70052 4.6068,2.54166 6.9896,6.98957 2.5417,4.44791 2.5417,9.37239 -0.6354,3.01822 -2.0651,8.57811 -1.4297,5.5599 -3.4948,11.27864 l -56.552,148.05193 q -7.3073,19.53905 -14.2969,30.65883 -6.9896,11.11978 -18.5859,16.99738 -11.4375,6.03645 -30.9765,6.03645 -19.0625,0 -28.5938,-4.13021 -9.5312,-4.1302 -9.5312,-15.09113 0,-7.46613 4.4479,-11.59634 4.6068,-3.97135 13.5026,-3.97135 3.4948,0 6.8307,0.95313 4.1302,0.95312 7.1485,0.95312 7.4661,0 11.7552,-2.22396 4.289,-2.22395 7.6249,-7.78384 3.4948,-5.40104 7.9427,-16.04426 z"
   style="font-style:normal;font-variant:normal;font-weight:normal;font-stretch:normal;font-size:325.333px;line-height:1.25;font-family:'Arial Rounded MT Bold';-inkscape-font-specification:'Arial Rounded MT Bold, ';fill:#fb713f;fill-opacity:1;stroke:none"
   id="path850" /><path
   d="M 1769.0751,677.33289 V 565.34081 q 0,-14.29686 6.3542,-21.44529 6.513,-7.14843 16.9973,-7.14843 10.961,0 17.3151,7.14843 6.513,7.14843 6.513,21.44529 v 114.53374 q 0,19.53904 4.2891,32.72393 4.4479,13.02603 15.5677,20.33331 11.1198,7.14843 31.1354,7.14843 27.6406,0 39.0781,-14.61457 11.4374,-14.77342 11.4374,-44.63797 V 565.34081 q 0,-14.45571 6.3542,-21.44529 6.3542,-7.14843 16.9974,-7.14843 10.6432,0 17.1562,7.14843 6.6719,6.98958 6.6719,21.44529 v 111.99208 q 0,27.32289 -5.401,45.5911 -5.2422,18.26821 -20.0157,32.08851 -12.7083,11.75519 -29.5468,17.15623 -16.8385,5.40104 -39.3958,5.40104 -26.8463,0 -46.2265,-5.71875 -19.3802,-5.8776 -31.612,-17.9505 -12.2317,-12.23176 -17.9505,-31.13539 -5.7187,-19.06248 -5.7187,-45.43224 z"
   style="font-style:normal;font-variant:normal;font-weight:normal;font-stretch:normal;font-size:325.333px;line-height:1.25;font-family:'Arial Rounded MT Bold';-inkscape-font-specification:'Arial Rounded MT Bold, ';fill:#fb713f;fill-opacity:1;stroke:none"
   id="path852" /><path
   d="m 2045.317,673.99695 h -16.5208 v 74.82024 q 0,14.77342 -6.513,21.763 -6.513,6.98958 -16.9974,6.98958 -11.2786,0 -17.4739,-7.30729 -6.1953,-7.30728 -6.1953,-21.44529 V 569.62987 q 0,-15.24998 6.8307,-22.08071 6.8307,-6.83072 22.0807,-6.83072 h 76.7265 q 15.8854,0 27.164,1.42969 11.2786,1.27083 20.3333,5.40103 10.961,4.60677 19.3802,13.18489 8.4193,8.57811 12.7083,20.0156 4.4479,11.27863 4.4479,23.98696 0,26.05205 -14.7734,41.61975 -14.6145,15.56769 -44.4791,22.0807 12.5495,6.67187 23.987,19.6979 11.4374,13.02603 20.3333,27.79945 9.0546,14.61457 13.9791,26.52862 5.0834,11.7552 5.0834,16.20311 0,4.60677 -3.0183,9.21353 -2.8593,4.44791 -7.9427,6.98958 -5.0833,2.70052 -11.7552,2.70052 -7.9427,0 -13.3437,-3.8125 -5.401,-3.65364 -9.3724,-9.37239 -3.8125,-5.71874 -10.4844,-16.83852 l -18.9036,-31.45309 q -10.1666,-17.31509 -18.2682,-26.36977 -7.9427,-9.05468 -16.2031,-12.39061 -8.2604,-3.33594 -20.8099,-3.33594 z m 27.0052,-97.85407 h -43.526 v 64.01817 h 42.2552 q 16.9973,0 28.5937,-2.85937 11.5963,-3.01823 17.6328,-10.00781 6.1953,-7.14843 6.1953,-19.53904 0,-9.69009 -4.9245,-16.99738 -4.9245,-7.46614 -13.6614,-11.11978 -8.2604,-3.49479 -32.5651,-3.49479 z"
   style="font-style:normal;font-variant:normal;font-weight:normal;font-stretch:normal;font-size:325.333px;line-height:1.25;font-family:'Arial Rounded MT Bold';-inkscape-font-specification:'Arial Rounded MT Bold, ';fill:#fb713f;fill-opacity:1;stroke:none"
   id="path854" /><path
   d="m 2235.9939,565.34081 v 169.49723 h 95.6301 q 11.4375,0 17.474,5.55989 6.1953,5.55989 6.1953,13.97915 0,8.57812 -6.0365,13.97915 -6.0364,5.24219 -17.6328,5.24219 h -113.8983 q -15.4088,0 -22.2396,-6.83073 -6.6718,-6.83072 -6.6718,-22.0807 V 565.34081 q 0,-14.29686 6.3541,-21.44529 6.5131,-7.14843 16.9974,-7.14843 10.6432,0 17.1562,7.14843 6.6719,6.98958 6.6719,21.44529 z"
   style="font-style:normal;font-variant:normal;font-weight:normal;font-stretch:normal;font-size:325.333px;line-height:1.25;font-family:'Arial Rounded MT Bold';-inkscape-font-specification:'Arial Rounded MT Bold, ';fill:#fb713f;fill-opacity:1;stroke:none"
   id="path856" /></svg>
